<svg width="969" height="228" viewBox="0 0 969 228" fill="none" xmlns="http://www.w3.org/2000/svg">
<path d="M902.95 152.931C919.45 152.931 934.68 141.007 934.68 117.42C934.68 93.8329 919.45 81.9089 902.95 81.9089C886.45 81.9089 871.21 93.8329 871.21 117.42C871.21 141.007 886.45 152.931 902.95 152.931ZM902.95 51.2319C940.26 51.2319 968.45 78.8769 968.45 117.42C968.45 155.963 940.28 183.608 902.95 183.608C865.62 183.608 837.45 155.713 837.45 117.42C837.45 79.1269 865.62 51.2319 902.95 51.2319Z" fill="white"/>
<path d="M734.04 228H700.27V55.0391H733.02V70.2581C738.61 60.6251 752.57 52.2461 771.35 52.2461C807.91 52.2461 828.98 80.1421 828.98 117.169C828.98 154.196 805.37 182.856 770.08 182.856C752.82 182.856 740.13 176.005 734.04 167.637V228ZM795.73 117.42C795.73 95.3611 782.02 82.4221 764.75 82.4221C747.49 82.4221 733.53 95.3611 733.53 117.42C733.53 139.479 747.5 152.669 764.75 152.669C782.01 152.669 795.73 139.73 795.73 117.42Z" fill="white"/>
<path d="M531.17 179.824H497.405V55.0392H529.64V70.2581C536.5 58.0831 552.49 51.4941 566.21 51.4941C583.22 51.4941 596.93 58.8471 603.27 72.2871C613.18 57.0681 626.37 51.4941 642.87 51.4941C665.97 51.4941 688.06 65.4472 688.06 98.9182V179.824H655.31V105.769C655.31 92.3291 648.71 82.1832 633.21 82.1832C618.74 82.1832 610.12 93.3431 610.12 106.784V179.824H576.6V105.769C576.6 92.3291 569.74 82.1832 554.52 82.1832C539.3 82.1832 531.17 93.0921 531.17 106.784V179.824Z" fill="white"/>
<path d="M396.938 103.227H452.786C452.284 90.8012 444.159 78.6262 424.862 78.6262C407.345 78.6262 397.702 91.8162 396.938 103.227ZM456.095 135.683L484.27 144.05C477.926 165.608 458.127 183.608 427.407 183.608C393.138 183.608 362.92 159.007 362.92 116.907C362.92 77.0872 392.373 51.2202 424.36 51.2202C462.942 51.2202 486.051 75.8212 486.051 115.892C486.051 120.715 485.537 125.788 485.537 126.289H396.173C396.938 142.774 410.894 154.698 427.658 154.698C443.394 154.698 452.033 146.832 456.095 135.683Z" fill="white"/>
<path d="M389.475 33.22H332.611V179.812H297.326V33.22H240.451V0H389.475V33.22Z" fill="white"/>
<path fill-rule="evenodd" clip-rule="evenodd" d="M180 180H0V0H180V180ZM61.328 49.95C60.236 49.95 59.267 50.65 58.923 51.686L51.188 74.895C50.899 75.76 51.543 76.651 52.453 76.651H74.915C75.825 76.651 76.469 77.543 76.181 78.408L59.553 128.293C59.264 129.158 59.908 130.05 60.818 130.05H84.906C85.998 130.05 86.967 129.35 87.312 128.314L103.956 78.385C104.3 77.349 105.269 76.649 106.361 76.649H128.871C129.963 76.649 130.933 75.95 131.277 74.914L139.012 51.707C139.3 50.842 138.657 49.95 137.746 49.95H61.328Z" fill="white"/>
</svg>
